/* XPM */
static char *_530fd4592f84dfbde5f570caffe7e31WLbhJ6wfnELdo3J0[] = {
/* columns rows colors chars-per-pixel */
"50 50 228 2 ",
"   c #16193D",
".  c #390A2E",
"X  c #331226",
"o  c #042232",
"O  c #052A38",
"+  c #0B3432",
"@  c #303C3F",
"#  c #4C0518",
"$  c #570319",
"%  c #6F0E1E",
"&  c #4C0825",
"*  c #461A28",
"=  c #4C1737",
"-  c #551E3A",
";  c #671C2D",
":  c #761424",
">  c #4C2B2D",
",  c #542B2F",
"<  c #4D3829",
"1  c #553B2B",
"2  c #593D2D",
"3  c #4E253C",
"4  c #4A2A39",
"5  c #52213C",
"6  c #572938",
"7  c #463935",
"8  c #523C32",
"9  c #5A3D31",
"0  c #54363B",
"q  c #5A3D3C",
"w  c #662339",
"e  c #77243B",
"r  c #663A3A",
"t  c #74323C",
"y  c #7D353B",
"u  c #124C36",
"i  c #135D3D",
"p  c #2E443D",
"a  c #296A2E",
"s  c #317C32",
"d  c #584126",
"f  c #5C432E",
"g  c #4D473A",
"h  c #564136",
"j  c #5D4233",
"k  c #56433A",
"l  c #5A443B",
"z  c #54493C",
"x  c #5B493E",
"c  c #525732",
"v  c #69482F",
"b  c #614333",
"n  c #614B33",
"m  c #6C4835",
"M  c #61453A",
"N  c #654A3B",
"B  c #6B4D3D",
"V  c #734D3B",
"C  c #6E513E",
"Z  c #73523D",
"A  c #79533E",
"S  c #5E653D",
"D  c #60673A",
"F  c #0E1F4E",
"G  c #1B1849",
"H  c #22124D",
"J  c #112F4F",
"K  c #0E3C47",
"L  c #302C51",
"P  c #283964",
"I  c #323B69",
"U  c #4A1E44",
"Y  c #4A1D49",
"T  c #5B1E45",
"R  c #472543",
"E  c #522443",
"W  c #542B45",
"Q  c #583644",
"!  c #5C3B42",
"~  c #5A2F50",
"^  c #682943",
"/  c #6D2C4D",
"(  c #762D47",
")  c #693846",
"_  c #793345",
"`  c #733A43",
"'  c #7C344C",
"]  c #0E434C",
"[  c #115744",
"{  c #0B4D54",
"}  c #124C57",
"|  c #125057",
" . c #12545C",
".. c #2D424D",
"X. c #334545",
"o. c #145360",
"O. c #2A4F6D",
"+. c #394875",
"@. c #3B4B77",
"#. c #3A4D7B",
"$. c #584544",
"%. c #634544",
"&. c #664747",
"*. c #654C42",
"=. c #6B4E42",
"-. c #7B4646",
";. c #704D40",
":. c #665147",
">. c #6D5242",
",. c #6C5A44",
"<. c #665148",
"1. c #6B544A",
"2. c #6E594D",
"3. c #715444",
"4. c #7B5640",
"5. c #765944",
"6. c #795A44",
"7. c #735649",
"8. c #745949",
"9. c #6C4B51",
"0. c #6D5250",
"q. c #7A5C50",
"w. c #766156",
"e. c #7D6353",
"r. c #7B655B",
"t. c #7D685C",
"y. c #705166",
"u. c #7B6368",
"i. c #851827",
"p. c #921C2A",
"a. c #86272F",
"s. c #97232B",
"d. c #8D3638",
"f. c #A5242A",
"g. c #A8242B",
"h. c #A62630",
"j. c #A73B3E",
"k. c #B33A38",
"l. c #A3453F",
"z. c #BD443D",
"x. c #BC4A3B",
"c. c #C1483E",
"v. c #833843",
"b. c #85344B",
"n. c #8B374D",
"m. c #963C45",
"M. c #9F3946",
"N. c #96374D",
"B. c #98374A",
"V. c #95394D",
"C. c #9B3A4D",
"Z. c #833351",
"A. c #8E3651",
"S. c #933951",
"D. c #A73D4A",
"F. c #A43E4C",
"G. c #8B4244",
"H. c #87454B",
"J. c #96434A",
"K. c #97534F",
"L. c #A7464B",
"P. c #AB434C",
"I. c #B3444D",
"U. c #B34A4C",
"Y. c #BB4A48",
"T. c #A55A4D",
"R. c #A74855",
"E. c #B24650",
"W. c #BB4C51",
"Q. c #AF5B56",
"!. c #B95458",
"~. c #836654",
"^. c #836854",
"/. c #846459",
"(. c #856959",
"). c #B96658",
"_. c #9D6B67",
"`. c #84746A",
"'. c #B16561",
"]. c #BF7E77",
"[. c #C14540",
"{. c #C34C4D",
"}. c #CA4E4E",
"|. c #C95547",
" X c #DA574E",
".X c #C24D53",
"XX c #C75757",
"oX c #D45A53",
"OX c #DC5C53",
"+X c #D95855",
"@X c #E1594D",
"#X c #E25A50",
"$X c #CC6342",
"%X c #D06C46",
"&X c #D26A4C",
"*X c #D4724B",
"=X c #CA6855",
"-X c #D36A55",
";X c #D66758",
":X c #E3665B",
">X c #C25D63",
",X c #D56A64",
"<X c #C6796B",
"1X c #D7776D",
"2X c #E96F64",
"3X c #EB7667",
"4X c #368B2B",
"5X c #B9867B",
"6X c #CD835C",
"7X c #E18850",
"8X c #E38853",
"9X c #E4AA5F",
"0X c #FEB55D",
"qX c #CD8A75",
"wX c #CF927A",
"eX c #EA876F",
"rX c #F48776",
"tX c #FD927F",
"yX c #3E5281",
"uX c #3B728B",
"iX c #405783",
"pX c #40748E",
"aX c #497899",
"sX c #5B86AC",
"dX c #638EB3",
"fX c #E6AC8D",
"gX c #F4B897",
"hX c #FEC397",
/* pixels */
"k k 1.2.2.1.k k 1.1.1.*.*.x 2.2.1.r.r.k 1.1.1.:.:.8 8 :.1.1.1.l l 1.>.>.=.=.l :.:.1.t.t.1 :.:.1.,.,.",
"k k 1.2.2.1.k k 1.1.1.*.*.x 2.2.1.r.r.k 1.1.1.:.:.8 8 :.1.1.1.l l 1.>.>.=.=.l :.:.1.t.t.1 :.:.1.,.,.",
"8 8 *.1.1.1.k k 1.1.1.*.*.h r.r.:.r.r.8 e.e.>.N N 1 1 N *.*.1.M M 7.>.>.N N j e.e.B e.e.d < < 1 2 2 ",
"l l *.1.1.:.h h 1.1.1.*.*.l ,.,.C 8.8.j ^.^.>.>.>.j j l >.>.=.j j >.B B *.*.b B B 3.3.,.f n n n B B ",
"l l *.1.1.:.h h 1.1.1.*.*.l ,.,.C 8.$.R 0.^.>.$.3 3 3 4 ! ! =.j j >.B B *.*.b B B 3.,.,.f n n n B B ",
"8 8 *.>.>.>.9 9 1.>.>.>.>.j 8.=.N 9.Q R 1.~.>.` P.P.L.5 R R &.j j 3.>.>.N N b Z Z Z ^.^.d C C C v v ",
"k k M M M N 2 2 7.3.3.=.=.M C 0 0 R Y Y %.3.B J.@X@XOX6 4 4 M 9 9 Z Z Z N B b B B 5.5.5.f 5.5.Z v v ",
"k k M M M N 2 2 7.3.3.=.=.M l Q Q / b.V.` %.) =X3XXXU._ ) ) ! 0 9 Z Z Z B B b B B 5.5.5.f 5.5.Z v v ",
"k k =././.e.j j 3.>.>.>.>.b R / / S.U.OXL.3 v.3XrX!.V.V.n.n.^ 4 m Z Z Z B B b B B 3.Z Z f 8.8.Z V V ",
"k k (.3.3.e.b b 3.3.3.e.e.2 U / / V.!.3XXX( C.:X:XE.V.V.B.B.F.J.9 M Z Z N B b ;.;.B 3.3.f ~.~.7.V V ",
"k k (.3.3.e.b b 3.3.>.q.q.1 E ( ( S.>XrX,XV.P. X XP.V.F.P.P.oX;Xe q B B B B b ;.;.B 3.3.f ~.~.7.V V ",
"k k (.>.>.(.b b 3.C 0 W W 3 Z.A.A.V.W.:X.XV.C.{. XP.B.XXoXoX3XrX{.J.0 q B B 2 7.7.3.3.3.b ~.~.8.V V ",
"k k (.>.>.(.b b 3.C q Q R = E.I.I.I.W..XI.V.n.V.P.C.B.+XOXOX,X1XL.-.0 q B B 2 7.7.3.3.3.b ~.~.8.V V ",
"k k 1.3.3.~.b b 3.3.3.~.Q - OX@X@X#X{.C.B.V._ 3 5 b.B.OXoXoXD.V.- 4 2 2 9 9 1 =.=.>.N N j e.e.Z m m ",
"k k (.B B C b b 3.C C (.&.6 L.W.W.{.E.C.C.P.B.( v.N.V..XW.W.F.V._ ) l l =.=.j 7.7.=.3.3.j ~.~.Z V V ",
"k k (.B B C b b 3.C C (.(.2 - ( ( B.B.V.E.OXW.W.oXP.V.B.B.B.V.B.+XR.4 0 *.*.j 7.7.=.3.3.j ~.~.Z V V ",
"k k 8.3.3.~.b b 3.>.>.~.9.0 U ' ' I.D.C.!.2XXX{.OXXX>XC.C.C.P.E.D.H.! %.N N M 3.3.>.=.B j /./.B A A ",
"k k 7.3.3.~.b b 3.>.>.~.~ Y W J.J. X{.C.>XtX1X{.#XrXtXC.F.F.}.+Xw ! =.=.N N M 3.3.3.>.>.j 3.3.3.m m ",
"k k 7.3.3./.b b 3.>.>.~.) ^ 5X'.'.I.D.C.!.2XXXF.W.;X2XM.C.C.P.P.]._.` =.N N M 3.3.3.>.>.j 3.3.7.m m ",
"l l 7.3.3.(.f f >.3.3.>.` t gX<X<XC.V.V.U.#X}.C.C.}.#XF.V.V.V.m.gXwX` &.N N j >.>.N N N b /./.3.V V ",
"l l 3.>.>.~.j j 8.3.3.3.` t eX).).B.V.V.U.#X}.V.C.}.OXF.V.V.V.m.eX).` &.N N 9 b b N N N 2 3.3.7.V V ",
"l l 3.>.3.~.f j 8.3.3.3.` t =XU.U.B.V.V.E. X{.V.C.}.+XM.V.V.V.m.=XT.) %.N N 2 b b N N N 2 3.3.7.V V ",
"l l >.C C 3.b b 3.8.8.N m r J.m.m.V.V.V.C.I.F.V.V.F.P.C.V.V.V.B.J.-.=.=.N N 1 j j j j j 2 ~.~.Z 4.4.",
"k k M 3.3.~.f f 3.C C C C b _ b.b.S.S.S.V.V.V.V.V.V.V.V.V.V.S.S._ &.>.C B B j /.~.~.~.~.j 8.8.Z A A ",
"k k M 3.3.~.j j 3.C C C C b H.! ! W ( A.S.S.V.V.V.V.V.V.n.n.^ 3 r =.C C B B j ~.~./.^.^.j 8.8.Z A A ",
"< < 3.3.3.3.j j >.>.C B B b -.0 0 W ( A.S.S.V.V.V.V.V.V.n.n.^ 3 r =.3.3.B B b 3.3.C ^.^.2 3.3.Z A A ",
"< < 3.3.3.3.j j >.>.C B B b 3.> > = ^ ' ' ' n.V.V.n.' ' ( ( - X j 3.3.3.B B b 3.3.=.^.^.2 3.3.Z A A ",
"8 8 N 3.3.3.b b C 3.3.B B b ~.0 > & = 3 E E ^ V.N.^ E E 5 5 & X b 3.3.3.N N b ~.~.3.(.(.1 ~.~.6.Z Z ",
"h h N B B 3.b b C 3.3.N N b 0 r r d.d.G.G.G.v./ ( v.G.G.G.G.d.y > %.7.7.N N b >.>.3.>.>.j ~.~.Z Z Z ",
"h h N B B 3.b b C 3.3.N N b X v.v.-X-X-X;X-XT.U T T.-X-X-X-X-X-X# 4 7.7.N N b >.>.3.>.>.j ~.~.Z Z Z ",
"8 8 N C C 3.2 2 >.3.3.B B b . a.a.x.c.c.[.Y.j.e e j.x.z.c.c.z.Y.$ > 3.3.7.7.j >.>.3.~.~.2 ~.~.3.A A ",
"8 8 j b b N 1 1 >.3.3.B B b # : : g.g.g.g.f.f.f.f.f.f.f.f.f.f.h.$ > 3.>.>.>.b C C 3.3.3.f 3.3.5.Z Z ",
"8 8 j b b N 1 1 >.3.3.B 7 7 : p.p.g.k.z.|.%X%X%X%X%X%Xx.z.z.h.f.i.6 7 z >.>.b C C 3.3.3.f 3.3.5.Z Z ",
"h h >././.~.b b >.3.3.B * $ f.f.f.g.z.;X7X0X0X0X0X0X0X*XoXoXk.f.h.i.# , 7.7.b C >.3.C C j 5.8.3.A A ",
"l l ~.3.3.~.b b C 3.3.B 6 ; 1Xl.L.: s.k.c.$X$X$X$X$X$Xx.k.k.i.% 1XQ.w r ~.~.b 3.3.3.8.8.j (.(.Z A A ",
"l l ~.3.3.~.b b >.3.3.B %.t hXT.T.$ : f.g.g.g.g.g.g.g.g.s.s.% # gXwX` &.~.~.b 3.3.3.8.8.f (.(.Z A A ",
"l l r.3.3.e.1 1 3.B N M ) t hXT.T.# a.{.&X7X7X7X7X7X7X|.Y.Y.: # gXwX` %.>.>.b 3.>.>.N N j 5.5.Z A A ",
"l l r.3.3.e.1 1 3.N B M $.t fXK.K.& y Q.6X9X9X9X9X9X9X=XQ.Q.; # fXqX) %.3.>.b >.>.>.N N j 5.5.Z A A ",
"l l 1.>.>.e.1 1 1 1 1 2 k r _.) ) . W y.u.`.`.`.`.`.`.y.y.y.U . _./.&.=.~./.b >.>.>.*.*.j B B Z A A ",
"l l 1.3.3.>.2 2 N B B M M j $.L L H P yX#.@.@.@.@.@.#.iX#.#.L G ) $.>.=.(.(.2 >.>.>.*.*.j 8.8.Z A A ",
"l l 1.3.3.,.2 2 N B B M M j 8.....G #.sXaX@.I G G I #.dXsXsXP F j 3.>.>.(.(.2 >.>.>.*.*.j 8.8.Z A A ",
"l l >.>.>.r.j j 7.7.3.N N j $.....J O.uXuXO.P   G P O.aXuXpXP J 7 $.3.3.~.~.b >.3.>.*.*.j (.(.3.V V ",
"k k >.3.3.r.j j >.3.3.B B j O K K } |  . .| K o O ] } o. . .} } O @ =.=.(.(.b 3.3.7.1.1.j (.(.3.Z Z ",
"k k >.3.3.r.j j >.3.3.B B j K ] ] } [ [ i i u o o u i i [ [ [ { + X.=.=.(.(.b 3.3.7.1.1.j (.(.3.Z Z ",
"l l >.3.3.~.2 2 >.>.>.N N j 3.X.p o u 4X4X4Xa o o a 4X4Xs s + O 2 >.3.3.3.3.2 /./.>.>.>.j 7.7.3.A A ",
"l l ,.3.3.~.j j 3.3.3.N N j N z x 7 g c S S S g g c c D S S <.7 b 8.>.>.3.3.2 1 1 (.>.>.9 B B Z 4.4.",
"l l ,.3.3.~.j j 3.3.3.N N j N N B N N 2 3.3.3.>.>.j j 3.7.7.(.b b 8.3.>.3.3.2 1 1 (.>.>.9 B B Z 4.4.",
"x x :.:.>.,.l l 1.,.,.M M 2 j j j 9 j 1 (.(.>.8.8.l l >.>.>.>.j j >.7.7.N N j 2 2 2 h h 8 8.8.3.Z Z ",
"z z x :.:.r.h h :.1.1.:.:.l r.r.t.w.w.k 2.2.1.1.1.k k l 1.1.t.8 8 :.*.*.<.<.l t.t.r.t.t.h 1.1.>.C C ",
"k z x :.:.r.h h :.1.1.:.:.l r.r.t.w.w.k 2.2.1.1.1.k k l 1.1.t.8 8 :.*.*.<.<.l t.t.r.t.t.h 1.1.>.C C "
};
