/* XPM */
static char *_0ea6cd91f554b5b845be60923b9cd4bp6FgUc5g7z09tfhk[] = {
/* columns rows colors chars-per-pixel */
"50 50 90 1 ",
"  c #4D3924",
". c #4D382C",
"X c #543927",
"o c #5B3927",
"O c #553B2B",
"+ c #5A3C2C",
"@ c #523C32",
"# c #5C3E31",
"$ c #584126",
"% c #5C412E",
"& c #564136",
"* c #5D4233",
"= c #56433A",
"- c #5A443A",
"; c #5B493E",
": c #69482F",
"> c #614333",
", c #6D4734",
"< c #624A34",
"1 c #6D4C34",
"2 c #614639",
"3 c #694639",
"4 c #654A3B",
"5 c #6A4D3D",
"6 c #724D3B",
"7 c #6E513E",
"8 c #73523E",
"9 c #79533E",
"0 c #654C42",
"q c #6C4F42",
"w c #704D40",
"e c #665147",
"r c #6D5242",
"t c #6F5943",
"y c #665148",
"u c #6B544A",
"i c #6D594B",
"p c #6D584D",
"a c #6D584F",
"s c #705343",
"d c #735343",
"f c #745341",
"g c #715443",
"h c #715742",
"j c #775543",
"k c #735345",
"l c #715445",
"z c #705447",
"x c #755645",
"c c #7B5640",
"v c #785644",
"b c #745D42",
"n c #755845",
"m c #745A47",
"M c #775D46",
"N c #795A44",
"B c #725649",
"V c #73554B",
"C c #75574A",
"Z c #735A4B",
"A c #74594B",
"S c #7E5B50",
"D c #766156",
"F c #7E6151",
"G c #7A6453",
"H c #7F6453",
"J c #7C6556",
"K c #7D6659",
"L c #7C665A",
"P c #79635D",
"I c #7B685A",
"U c #7E685D",
"Y c #805E4E",
"T c #806352",
"R c #856353",
"E c #806651",
"W c #816453",
"Q c #876653",
"! c #836654",
"~ c #846657",
"^ c #816951",
"/ c #816855",
"( c #846855",
") c #856856",
"_ c #816658",
"` c #896758",
"' c #82695A",
"] c #866958",
"[ c #836A5E",
"{ c #886B5A",
/* pixels */
"==uppu==upp00;ppuPP=uuiee@@euuu--ire00-eeiUU.eeitt",
"==uppu==upp00;ppuPP=uuiee@@euuu--irr00-eeiIIOeeitt",
"@@0uup==iii00&JJeKK@GGr44OO400u22Brr04*FF5GG$  X+O",
"--0ppe&&uuu00-tt7ZZ*//ttt**-rr0**r5500>54ggg%<<<44",
"--0ppe&&uuu00-tt7ZZ*//ttt**-rr0*#r5500>54ggg%<<<44",
"@@0rrr##urrrr*mm7JJ*EEgrr**4llB*#srr55>888^^$77711",
"==2224++Bllqq2777ll#gg8gg%*>>>5##88855>55mMM%bb8::",
"==2224++Bllqq2777ll#gg8gg%%>>>5##88855>55mMM%bb8::",
"==0~~F**lrrrr>sssqq>xxgkk##7YYS3388855>55j88*mm866",
"==[ssF>>lssFF+ff5wq>EExss>>Rjj~>>88855>ww5gg*!!x66",
"==[ssF>>lssFT+ss5wq>EExss>>Rjj~>>88855>ww5gg*!!x66",
"=='rr)>>g77lx>sss55#fj8ss>*QvvE++l4455+CCsss>EEm66",
"=='rr)>>g77ll>ssk55*jj8ss>>QvvQ++l4455+CCsss>EEm66",
"==issT>>lss!!>ffk55*668ss%%688Q+++++##Oqqr44*FF811",
"=='557>>s77]]+ffs55*ff8ss>>f88j>>54400-CCqll*E!866",
"=='557>>s77]]+ffs55*fj8ss>>f88g>>54400-CCqll-!!866",
"==AlgT>>lrrEE>ffs55#TTf77>>888Q>>lll44-rrr55-~~588",
"==BggE>>grr!!>88sll>RR8ss>>888)++srr55-rrrrr*llx,,",
"==Bgg!>>g7r!~>88sll>RR8ss>>888)++srr552kkkrr*llx,,",
"--Bss]%%7ssss+TTsss>886xx>>f88Q>>rrr55*rr544>~~g66",
"--lrrT*>mssss+ooElkX88fss++888Q>>rrr44+>>544+llx86",
"--lrsT>>mssss+ooEllX88fss++888Q>>rrr44+>>544+llx66",
"--r77l>>gmm44>oo+>>+ggg77>>8888>>rrr44O*****+QQ8cc",
"==2ggE%%s7777>``REE>77srr>>3ggE%*srr55*!!!!!*mm899",
"==2gg!**s7777>``REE>77s7r>>3ggE%%s7755*!!~//*mm899",
"..lggs**rrs55>ssj~~+44g7rOOglls**sss55>llr//+gg899",
"..lggs**rrr55>ssx~~+44g7rOOglls**kkk55>llq//+gg899",
"@@4lls>>7gg44>RR8EE+++XOOOO4BBk>>rll55>!!s]]OQQN88",
"&&455g>>7gg44>ss6jx*44445*-5rrk>>rBB55>rrltt*QQ888",
"&&455g>>7gg44>sssjx*44445--5rrk>>qBB55>rrltt*QQ888",
"@@477sOOsgg55>xxsTT+ttl44XO5kkr++kkkBB#rrl!!OEEj99",
"@@*>>4XX8ss55>sss77>ttr44XX#**5OOrrrrr>77gll%ggm88",
"@@*>>4XXrss55>88s77>tt733XX***5OOrrrrr>77gll%ggm88",
"&&r~)!>>rss55>ss577>77t<<**l!!~>>rrrCC>rrs77*mmj99",
"--_llE>>rss55>sssss>HHttt%%!ss)>>rgg!!>ssgZZ*))899",
"--_llE>>rss55>sssss>HHttt%%!ss)>>rgg!!>ssgZZ*))899",
"--KllFXXl5522Xlllrr>]]r2222Ess{%*g77ss>rrr44*mm899",
"--KllFXXl5522Xxxlrr>]]r2222Ess{**g77ss>rrr44*mm899",
"--irrFXXXXX++Xrrl22>!!r44**5ss!>>lgg!!>rrr00*55899",
"--illr++55544*AAgll>''rrr**Eqqr**srr]]+rrr00*mm899",
"--illt++55522*AAsll>''rrr**Eqqr**srr]]+rrr00*mm899",
"--rrrJ**llB44-ssl44>!!rrr++rll!**lss!!>rsr00*]{j66",
"==rllJ**rll55*llr44Olll44**rssE**sqq]]>llxuu*]]j88",
"==rllJ**rtl55*llr44Olll44**rssE**sqq]]>llxuu*]]j88",
"--rll!++rrr44*ll522*!!rrr--rss]++rssll+~~rrr*llj99",
"--tll!**lll44*44544Olllrr--lll]>>Arrll+++]rr#5589j",
"--tll!**lll44*44544+lllrr*-lll]>>Arrll+++]rr#558jj",
";;eert--itt22O--***O''rAA--rrrr--rBB44*+++&&@ZZg99",
"==;eeK==euuee-KKIDD=ppuuu==-uuU@@e00yy-UUKUU&uur77",
"==;eeK&&euuee-KKIDD=ppuuu==-uuU@@e00yy-UUKUU&uur77"
};
