/* XPM */
static char *_273329d8ae84f34dbaeae8c4afa0a3eUXG3egEMjFJUlQxR[] = {
/* columns rows colors chars-per-pixel */
"50 50 226 2 ",
"   c #380C23",
".  c #261427",
"X  c #2C1224",
"o  c #2A1837",
"O  c #022923",
"+  c #032233",
"@  c #022A34",
"#  c #112B36",
"$  c #4D040F",
"%  c #530309",
"&  c #4D0319",
"*  c #5B0215",
"=  c #53001C",
"-  c #5B1016",
";  c #640516",
":  c #701013",
">  c #4F0221",
",  c #581939",
"<  c #771B29",
"1  c #641A36",
"2  c #4D3829",
"3  c #553B2B",
"4  c #593D2D",
"5  c #48223C",
"6  c #523C32",
"7  c #593D31",
"8  c #6C243A",
"9  c #732539",
"0  c #6D3837",
"q  c #753535",
"w  c #76333C",
"e  c #7B353A",
"r  c #584126",
"t  c #5C422E",
"y  c #564136",
"u  c #5D4233",
"i  c #56433A",
"p  c #5A443A",
"a  c #5B493E",
"s  c #69482F",
"d  c #614333",
"f  c #614B33",
"g  c #6D4934",
"h  c #60463A",
"j  c #654B3B",
"k  c #6B4D3D",
"l  c #734D3B",
"z  c #6E513E",
"x  c #73523D",
"c  c #79533E",
"v  c #191847",
"b  c #1E1E50",
"n  c #21134C",
"m  c #29114C",
"M  c #072C4F",
"N  c #152249",
"B  c #0A3D49",
"V  c #252F4D",
"C  c #2F2A4C",
"Z  c #3A2549",
"A  c #36284B",
"S  c #2D384B",
"D  c #342853",
"F  c #263256",
"G  c #35396A",
"H  c #4D1D45",
"J  c #4B1C49",
"K  c #521B43",
"L  c #571C45",
"P  c #481B52",
"I  c #631E44",
"U  c #43234A",
"Y  c #562F49",
"T  c #5B3B47",
"R  c #6C2744",
"E  c #742C46",
"W  c #653849",
"Q  c #753243",
"!  c #793143",
"~  c #7C3550",
"^  c #125349",
"/  c #0D5454",
"(  c #135154",
")  c #1C6A44",
"_  c #3A7E48",
"`  c #3D4B75",
"'  c #2B5470",
"]  c #325173",
"[  c #4F4349",
"{  c #4D444D",
"}  c #654C42",
"|  c #6B4F42",
" . c #704D40",
".. c #665147",
"X. c #6D5242",
"o. c #6F5943",
"O. c #665148",
"+. c #6B544A",
"@. c #6E594D",
"#. c #715444",
"$. c #7B5640",
"%. c #755945",
"&. c #795A44",
"*. c #735649",
"=. c #745949",
"-. c #766156",
";. c #7E6353",
":. c #7B655B",
">. c #7D685C",
",. c #67725F",
"<. c #414C6F",
"1. c #424B72",
"2. c #716F6C",
"3. c #A22B1C",
"4. c #8D1E29",
"5. c #9D282E",
"6. c #9D2634",
"7. c #853637",
"8. c #A32923",
"9. c #A62629",
"0. c #A7262A",
"q. c #A42532",
"w. c #A93438",
"e. c #B23730",
"r. c #944433",
"t. c #B5422A",
"y. c #B64030",
"u. c #842D40",
"i. c #8A3946",
"p. c #9E3645",
"a. c #983A47",
"s. c #9B364C",
"d. c #95394D",
"f. c #8E3B55",
"g. c #943951",
"h. c #993951",
"j. c #A83D48",
"k. c #9B5346",
"l. c #A6454A",
"z. c #B7484E",
"x. c #A1534F",
"c. c #A74755",
"v. c #BD4A52",
"b. c #B65658",
"n. c #826654",
"m. c #836854",
"M. c #846658",
"N. c #856959",
"B. c #B25B67",
"V. c #946E68",
"C. c #B66B66",
"Z. c #BC7D65",
"A. c #CC534F",
"S. c #D3564E",
"D. c #C64E51",
"F. c #C8575A",
"G. c #DC5B55",
"H. c #D45B5A",
"J. c #DA5B5A",
"K. c #E6574C",
"L. c #E4594D",
"P. c #E45657",
"I. c #E25950",
"U. c #D46C4E",
"Y. c #D9694E",
"T. c #CB6957",
"R. c #D76756",
"E. c #D56B53",
"W. c #D17551",
"Q. c #E66B5C",
"!. c #D35D61",
"~. c #D07269",
"^. c #E4726E",
"/. c #F27D72",
"(. c #378E2A",
"). c #3B853A",
"_. c #378B3B",
"`. c #3B8646",
"'. c #80816E",
"]. c #AB8D73",
"[. c #DE8A5E",
"{. c #EC9A5E",
"}. c #FFB65A",
"|. c #D4967E",
" X c #EC9768",
".X c #F78777",
"XX c #E59873",
"oX c #FF937E",
"OX c #F7A76C",
"+X c #FFB264",
"@X c #FAB961",
"#X c #FCB36C",
"$X c #F7AE74",
"%X c #F9A971",
"&X c #3F5581",
"*X c #3E6888",
"=X c #404E80",
"-X c #47648E",
";X c #486F94",
":X c #647A96",
">X c #856D8A",
",X c #5892AE",
"<X c #6691A5",
"1X c #6395C1",
"2X c #A79886",
"3X c #CB9A84",
"4X c #EF8F87",
"5X c #FF9581",
"6X c #FD958B",
"7X c #D8AF93",
"8X c #EAA389",
"9X c #FAB98B",
"0X c #E7AA96",
"qX c #E3B896",
"wX c #F3B89B",
"eX c #E4B9AB",
"rX c #FEC78F",
"tX c #FEC593",
"yX c #FEC991",
"uX c #FFC39A",
"iX c #FFC0A1",
"pX c #EAC6BB",
"aX c #F1D4CA",
"sX c #F6E6D5",
"dX c #F9EFE9",
"fX c #EAF3F7",
/* pixels */
"i i +.@.@.+.i i +.+.+.} } a @.@.+.:.:.i +.+.+.....6 6 ..+.+.+.a a +.X.X.| | a ....+.>.>.3 ....@.o.o.",
"i i +.@.@.+.i i +.+.+.} } a @.@.+.:.:.i +.+.+.....6 6 ..+.+.+.a a +.X.X.| | a ....+.>.>.3 ....@.o.o.",
"6 6 } +.+.+.i i +.+.+.} } y :.:...:.:.6 ;.;.X.j j 3 3 j } } +.h h *.X.X.j j u ;.;.k ;.;.r 2 2 3 4 4 ",
"p p } +.+...y y +.+.+.} } p o.o.z =.C C C C C X.X.u u p U C | u u X.k k } } d k j #.o.o.t f f f j j ",
"p p } +.+...y y +.+.+.} } p o.o.k C H H K K K C X.y y p J V | 7 u X.k k } } d k j #.o.o.t f f f j j ",
"6 6 } X.X.X.7 7 +.X.X.X.X.u =.=.z C K l.I.I.I.c.P C u j J J J V u #.X.X.j j d x x x m.m.r z z z s s ",
"i i h h h j 4 4 *.#.#.| | h z z C U E h.v.A.I.F.B.2.C Z a.d.E Y 7 x x x j k d k k %.%.%.t %.%.x s s ",
"i i h h h j 4 4 *.#.#.| | h z Z H ~ d.d.g.z.I.Q.6X4XL 1 I.G.g.f.L A x x k k d k k %.%.%.t %.%.x s s ",
"i i | M.M.;.u u #.X.X.X.X.u X.U u.c.b.c.g.z.I.Q..X^.R 9 Q.^.g.f.L C x x k k d k k #.x x t =.=.x l l ",
"i i N.#.#.;.d d #.#.#.;.;.J K F.K..X6XB.d.z.I.L.K.S.d.a.5X6Xg.g.L C x x k k d  . .k #.#.t n.n.=.l l ",
"i i N.#.#.;.d d #.#.#.;.;.8 9 H.K./.5XF.j.z.F.F.F.b.d.a..X5Xg.g.I U x x k k d  . .k #.#.t n.n.=.l l ",
"i i N.X.X.N.d d #.z z Z , L.L.L.L.L.L.L.L.l.K H H L d.p.K.G.d.d.g.g.K J k k 4 =.=.#.#.#.d n.n.=.l l ",
"i i N.X.X.N.d d #.z z Z D !.H.J.J.J.J.J.J.j.1 , , 1 p.w.J.J.p.p.p.a.J J k k 4 =.=.#.#.#.d n.n.=.l l ",
"i i +.#.#.n.d d #.#.#.n.n.J K f.g.g.g.g.h.z.I.D.d.j.P.J.d.s.L.L.L.G.J Z 7 7 3 | | X.j j u ;.;.x g g ",
"i i N.k k z d d #.z z Z D H.H.J.G.l.d.^.6X/.I.D.g.l.5X6Xg.a.oX6X< 5 j j | } u =.=.| #.#.u n.n.x l l ",
"i i N.k k z d d #.z z Z D J.J.G.L.j.s.^.5X/.G.D.d.l.oX6Xg.a.oX6X8 Z j j } } u =.=.| #.#.u n.n.x l l ",
"i i =.#.#.n.d d #.X.X.n.n.J , F.L.j.s.D.I.v.s.l.E.Y.L.J.h.p.L.G.j.f.H Z j j h #.#.X.k k u M.M.k x x ",
"i i *.#.#.n.d d #.X.X.n.n.J , F.L.j.s.D.I.v.s.l.E.Y.L.J.h.p.L.G.j.f.H Z j j h #.#.#.X.X.u #.#.#.g g ",
"i i *.#.#.n.d d #.X.X.n.H 7X8XE.Y.u.I R 9 a.T.~.9X8X9 R I 1 Y.E.8X0XR T j j p #.#.#.X.X.u #.#.=.g g ",
"p p *.#.#.N.t t X.#.#.W q tXtXW.U.w J J J i.E.[.tXqXH H H , Y.U.9XuX! W j j u X.X.j j j d M.M.#.l l ",
"p p #.X.X.n.u u =.#.#.W q tXtXW.Y.aXfX>XH V.uXtXtX0XH U fXdXY.U.9XuX! W j j 7 d d j j j 4 #.#.=.l l ",
"p p #.X.X.n.u u =.#.#.#.7.Z.Z.XXXXaXfX:XS V.tXrXrX7XS S fXdXXXXXZ.].W W j j 4 d d j j j 4 #.#.=.l l ",
"p p X.z z #.d d #.=.=.j j w q wXtXsXfX<X( '.tXrXrX7X( ( fXdXtXuX7.T X.X.j j 3 u u u u u 4 n.n.x $.$.",
"i i h #.#.n.t t #.z z z z ! q 2X|.eXpX2X,.].tXtXtXqX,.,.pXpX3X3Xe T X.z k k u n.n.M.n.n.u =.=.x c c ",
"i i h #.#.n.u u #.z z z z d N.[ ! b.U.XXrXtXyXtXtXtXtXtXE.T.Q [ t #.z z k k u n.n.M.m.m.u =.=.x c c ",
"2 2 #.#.#.#.u u X.X.#.k k d #.. = 9 w q q k.E.E.U.T.q e e ! & . u #.#.#.k k d #.#.z m.m.4 #.#.x c c ",
"2 2 #.#.#.#.u u X.X.z k k d x . = 8 ! Q w l.E.E.Y.T.Q ! ! ! = . u X.X.X.k k d #.#.| m.m.4 #.#.x c c ",
"6 6 j #.#.#.d d z #.#.j j . X C.T.OX#Xr.$ k.uXtXtX0X& % #X$XT.~.  # #.*.k j d n.n.#.N.N.3 n.n.&.x x ",
"y y j k k #.d d z #.#.j j . = T.R.OX$Xr.* x.iXuXuX0X= % +X#XR.T.*   *.*.j j d X.X.#.X.X.u n.n.x x x ",
"y y j k k #.d d z #.#.j j . * 5.0.8.8.q.6.< % % $ * 6.6.3.3.8.5.;   *.*.j j d X.X.#.X.X.u n.n.x x x ",
"6 6 j z z #.4 4 X.#.#.k k . * 6.0.0.0.8.8.: % % % ; 0.8.8.0.0.q.; > #.#.*.*.u X.X.#.n.n.4 n.n.#.c c ",
"6 6 u d d j 3 3 X.#.#.@ o 6.6.q.0.A.R. XOXOXOXOXOXOXOX%XR.R.0.0.6.6.# # X.X.d z z #.#.#.t #.#.%.x x ",
"6 6 u d d j 3 3 X.#.#.X = 0.5.q.q.A.E.{.+X+X+X+X+X+X}.#XR.R.q.q.q.5.&   #.X.d z z #.#.#.t #.#.%.x x ",
"y y X.M.M.n.d d X.#.#.Y 9 8X8X: ; 5.e.e.t.t.t.t.t.t.t.y.e.w.; ; 8X8X8 Y =.=.d X.X.#.z z u %.=.#.c c ",
"p p M.#.#.n.d d z #.#.{ q rXtX- = 4.0.0.0.0.0.0.0.0.0.0.0.5.> $ wXuXQ W n.n.d #.#.#.=.=.t N.N.x c c ",
"i i M.#.#.n.d d X.#.#.{ q rXuX- = z.R.{.}.}.}.}.}.}.}.+XR.~.& $ wXuXQ W n.n.d #.#.#.=.=.t N.N.x c c ",
"p p :.#.#.;.3 3 #.j j { 0 tXuX- > b.E.{.@X@X@X@X@X@X@X#XT.~.> & wXuXW [ #.#.d z X.X.j j u %.%.x c c ",
"p p :.#.#.;.3 3 #.j j h h w Q m m G 1.<.<.1.1.` ` ` ` 1.1.1.n o W T z z #.#.d X.X.X.j j u %.%.x c c ",
"p p +.X.X.;.3 3 3 3 3 4 4 Q Q N n =X-X&X` ` G G G G ` ` -X-Xn v Q T #.#.n.n.d X.X.X.} } u k k x c c ",
"p p +.#.#.X.4 4 j k k h h u =.M v ;X1X;X` G v n v b ` ] ,X1Xn M u #.X.X.N.N.4 X.X.X.} } u =.=.x c c ",
"p p +.#.#.X.4 4 j k k h h u =.B N ;X,X*X] F v v v N ] ' ,X,XN M u #.X.X.N.N.4 X.X.X.} } u =.=.x c c ",
"p p X.X.X.:.u u *.*.*.j j + + ( / / / / / B + + + @ / / / / / ( @ @ #.#.n.n.d X.X.X.} } u N.N.#.l l ",
"i i X.#.#.:.u u X.#.#.k k + O _ _._._.) / B + + + @ / ^ _._._.`.O @ | | N.N.d #.#.=.+.+.u N.N.#.x x ",
"i i X.#.#.:.u u X.#.#.k k + O ).(.(.(.) / B + + + @ / ^ (.(.(.).O @ | | N.N.d #.#.=.+.+.u N.N.#.x x ",
"p p X.#.#.M.4 4 X.X.X.j j u #.#.j h h u n.n.X.X.X.u u X.#.#.N.4 4 X.#.#.#.#.4 M.M.X.X.X.u =.=.#.c c ",
"p p o.#.#.n.u u #.#.#.j j u j j | j j 4 #.#.#.X.X.u u #.*.*.N.d d =.X.X.#.#.4 3 3 N.X.X.7 k k x $.$.",
"p p o.#.#.n.u u #.#.#.j j u j j k j j 4 #.#.#.X.X.u u #.*.*.N.d d =.X.X.#.#.4 3 3 N.X.X.7 k k x $.$.",
"a a ....X.o.p p +.o.o.h h 4 u u u u u 3 N.N.X.=.=.p p X.X.X.X.u u X.#.#.j j u 4 4 4 y y 6 =.=.#.x x ",
"i i a ....:.i i ..+.+.....p :.:.>.-.-.i @.@.+.+.+.i i p +.+.>.6 6 ..} } O.O.p >.>.:.>.>.y +.+.X.z z ",
"i i a ....:.y y ..+.+.....p :.:.>.-.-.i @.@.+.+.+.i i p +.+.>.6 6 ..} } O.O.p >.>.:.>.>.y +.+.X.z z "
};
