/* XPM */
static char *eb72ba151c4146f0c6da2b7da8b50ec7WGnzktCuF3BNpJuu[] = {
/* columns rows colors chars-per-pixel */
"50 50 210 2 ",
"   c #2D1414",
".  c #032E1D",
"X  c #131D21",
"o  c #0B1D39",
"O  c #261727",
"+  c #251C39",
"@  c #022627",
"#  c #043223",
"$  c #042333",
"%  c #022C39",
"&  c #003339",
"*  c #530308",
"=  c #5A1108",
"-  c #47051C",
";  c #4D021C",
":  c #560218",
">  c #640C1B",
",  c #78111E",
"<  c #4E0120",
"1  c #4F1E36",
"2  c #581937",
"3  c #521A3F",
"4  c #7D1022",
"5  c #651B3A",
"6  c #4D3924",
"7  c #4D382C",
"8  c #553B2B",
"9  c #593D2D",
"0  c #523C32",
"q  c #5A3D31",
"w  c #60202F",
"e  c #6B293E",
"r  c #792A37",
"t  c #73253C",
"y  c #7C3737",
"u  c #74333A",
"i  c #79313D",
"p  c #19683E",
"a  c #584126",
"s  c #5C422E",
"d  c #564136",
"f  c #5D4233",
"g  c #56433A",
"h  c #5A443A",
"j  c #5B493E",
"k  c #69482F",
"l  c #614333",
"z  c #6D4734",
"x  c #614B33",
"c  c #6D4C34",
"v  c #614639",
"b  c #694639",
"n  c #654A3B",
"m  c #6B4D3D",
"M  c #734D3B",
"N  c #6E513E",
"B  c #73523D",
"V  c #79533E",
"C  c #1C164D",
"Z  c #281146",
"A  c #22134A",
"S  c #073843",
"D  c #083940",
"F  c #3B234B",
"G  c #33285A",
"H  c #2D2B60",
"J  c #471F46",
"K  c #4B1D45",
"L  c #441B4A",
"P  c #4A1D49",
"I  c #511B42",
"U  c #591E40",
"Y  c #441E50",
"T  c #422441",
"R  c #472149",
"E  c #5D2542",
"W  c #662843",
"Q  c #6D3A48",
"!  c #753143",
"~  c #793142",
"^  c #713349",
"/  c #7C314C",
"(  c #7E3A54",
")  c #4A3D6E",
"_  c #014647",
"`  c #0C5844",
"'  c #0C564D",
"]  c #184D59",
"[  c #0C5555",
"{  c #025F5B",
"}  c #254A43",
"|  c #1D6446",
" . c #3C4878",
".. c #5D4057",
"X. c #654C42",
"o. c #6B4F42",
"O. c #704D40",
"+. c #665147",
"@. c #6D5242",
"#. c #6F5943",
"$. c #665148",
"%. c #6B544A",
"&. c #6E594D",
"*. c #715444",
"=. c #7B5640",
"-. c #765944",
";. c #795A44",
":. c #735649",
">. c #745949",
",. c #766156",
"<. c #7E6353",
"1. c #7B655B",
"2. c #7D685C",
"3. c #6C705A",
"4. c #50456B",
"5. c #464775",
"6. c #871C29",
"7. c #891A31",
"8. c #882E38",
"9. c #853A38",
"0. c #9A393F",
"q. c #A4262C",
"w. c #A9232E",
"e. c #A22828",
"r. c #A62132",
"t. c #A82332",
"y. c #A5383F",
"u. c #842E42",
"i. c #80304A",
"p. c #9D3646",
"a. c #953B46",
"s. c #9A3947",
"d. c #98374D",
"f. c #96394D",
"g. c #98384D",
"h. c #8E3B56",
"j. c #893C57",
"k. c #943951",
"l. c #993951",
"z. c #A53B45",
"x. c #884057",
"c. c #9A4A57",
"v. c #9C535E",
"b. c #AB424B",
"n. c #A14A49",
"m. c #B7484B",
"M. c #AE5246",
"N. c #A65453",
"B. c #826654",
"V. c #836854",
"C. c #816658",
"Z. c #856959",
"A. c #B8655D",
"S. c #985461",
"D. c #C34B4C",
"F. c #CB574E",
"G. c #DF5B4F",
"H. c #CB4F51",
"J. c #C75556",
"K. c #D55A57",
"L. c #DC5B54",
"P. c #E25B47",
"I. c #E4594C",
"U. c #E45755",
"Y. c #E25950",
"T. c #D46C4C",
"R. c #D86B4C",
"E. c #C96257",
"W. c #CB6D5B",
"Q. c #DB6557",
"!. c #D56B52",
"~. c #C45460",
"^. c #D25E60",
"/. c #C76362",
"(. c #DD7A74",
"). c #368F27",
"_. c #369128",
"`. c #3D8935",
"'. c #368C3C",
"]. c #3C8844",
"[. c #DD935D",
"{. c #EC985E",
"}. c #FFB45F",
"|. c #DC957A",
" X c #EE9562",
".X c #E5936A",
"XX c #F68677",
"oX c #F0887C",
"OX c #FFB167",
"+X c #ECA378",
"@X c #FEB07A",
"#X c #B2A1B8",
"$X c #D98B80",
"%X c #D89982",
"&X c #E39F89",
"*X c #FE9583",
"=X c #FB9A82",
"-X c #DEA591",
";X c #ECA386",
":X c #E5A289",
">X c #F3B686",
",X c #F9B88B",
"<X c #FFC78E",
"1X c #FCC98E",
"2X c #FEC693",
"3X c #F8C899",
"4X c #EBCDA4",
"5X c #F4CCA8",
"6X c #F8E4CF",
"7X c #EDF3FA",
/* pixels */
"g g %.&.&.%.g g %.%.%.X.X.j &.&.%.1.1.g %.%.%.+.+.0 0 +.%.%.%.j j %.@.@.o.X.j +.+.%.2.2.8 +.+.&.#.#.",
"g g %.&.&.%.g g %.%.%.X.X.j &.&.%.1.1.g %.%.%.+.+.0 0 +.%.%.%.j j %.@.@.o.o.j +.+.%.2.2.8 +.+.&.#.#.",
"0 0 X.%.%.%.g g %.%.%.X.X.d 1.1.+.1.1.0 <.<.@.n n 8 8 n X.X.%.v v :.@.@.n n f <.<.m <.<.a 6 6 8 9 9 ",
"h h X.%.%.+.d d %.%.%.X.X.h #.#.N >.>.f V.V.T T T T f h @.@.o.f f @.m m X.X.l m m *.#.#.s x x x m m ",
"h h X.%.%.+.d d %.%.%.X.X.h #.#.m >.>.f V.V.T P P K f h @.@.o.q q @.m m X.X.l m m *.#.#.s x x x m m ",
"0 0 X.@.@.@.q q %.@.@.@.@.f >.>.N 1.1.T T P u.U.~.P f n *.*.:.q q *.@.@.m m l B B B V.V.a N N N c c ",
"g g v v v n 9 9 :.*.*.o.o.v N N N *.*.T T I u.U.~.K f l l l m q q B B B m m l m m -.-.-.s -.-.B k k ",
"g g v v v n 9 9 :.*.*.o.o.v N N N *.R S.S.=X(.f.f.l.I P P P L Y q B B B m m l m m -.-.-.s -.-.B k k ",
"g g o.C.B.<.f f *.@.@.@.@.l *.*.*.o.R v.v.=X(.f.f.g.3 I I I K K b B B B m m l m m *.B B f >.>.B m m ",
"g g Z.*.*.<.l l *.*.*.<.<.9 L L L L k.m.m.I.H.d.d.k.K.L.*X*XQ.Y.W F B B m m l O.O.m *.*.s B.B.*.m m ",
"g g Z.*.*.<.l l *.*.*.<.<.9 L W ( x.b.m.m.H.b./ i.f.J.J.(.(.J.H.W F B B m m l O.O.m *.*.s B.B.*.M M ",
"g g Z.@.@.Z.l l *.N N *.T P j.d.oX*XI.D.D.f./ K U f.k.k.k.k.g.d.E P F L m m 9 :.:.*.*.*.l B.B.>.M M ",
"g g Z.@.@.Z.l l *.N L L x.k.K.L.G.G.s.f.f.f.b.K.J.k.K.L.L.L.5 I 9 *.n n m m 9 :.:.*.*.*.l B.B.>.M M ",
"g g %.*.*.B.l l *.*.K I h.k.K.I.I.I.f.k.k.k.b.I.K.k.L.I.I.I.5 P 8 8 9 9 q q 8 o.o.@.n n f <.<.B c c ",
"g g Z.m m N l l *.N K 3 h.k.f.g.f.f.k././.*XXXI.K.k.f.p.L.I.XX*X^ J n n o.o.f :.:.o.*.*.f B.B.B M M ",
"g g Z.m m N l l *.N K 3 f.p.p.p.g.f.s././.*XXXL.K.s.g.p.L.I.XX*X^ K n n X.X.f :.:.o.*.*.f B.B.B M M ",
"g g >.*.*.B.l l *.@.K 2 ^.Y.I.L.b.f.Y.I.I.I.J.f.n.R.a.p.L.P.I.I.t P *.*.n n v *.*.@.o.m l Z.Z.N V V ",
"g g :.*.*.B.l l *.@.K 3 l.z.K.L.b.f.Y.D.D.z.p.f.n.,XW.W.y.z.L.I.t P @.@.n n v *.*.*.@.@.f *.*.>.z z ",
"g g :.*.*.B.l l *.@.K 3 h.k.K.L.b.a.L.D.D.p.p.s.n.3XW./.0.s.K.L.W L @.@.n n v *.*.*.@.@.f *.*.*.z z ",
"h h :.*.*.Z.s s @.*.K 3 h.k.z.z.$X:Xz.m.m.E.E.E.A.Q e t E.E.r t E @.@.@.n n f @.@.m n n l B.B.*.M M ",
"h h *.@.@.B.f f >.*.K 3 h.k.f.a.:X2Xa.M.M.T.T.!.A.J J 1 W.R.w K l @.@.@.n n 9 l l m n n 9 *.*.*.M M ",
"h h *.@.N B.f f >.*.K 3 h.k.f.a.:X2X|.|.|.+X+X+X-X#X+ O :X+Xu W l @.@.@.n n 9 l l m n n 9 *.*.*.M M ",
"h h @.N N *.l l *.>.L J j.k.f.a.&X2X2X2X2X<X<X2X5X7X$ X 5X2Xy ! l N @.@.n n 8 f f f f f 9 B.B.B =.=.",
"g g v *.*.B.f s *.N N N L P j.s.J.!.2X2X2X2X2X2X5X7X] } 4X2X9.~ f *.@.@.m m f B.B.B.B.B.f >.>.B V V ",
"g g v *.*.B.f f *.N N N L L ../ c.N.+X>X>X2X2X2X5X6X3.3.3X2Xy ~ s *.N N m m f B.B.B.V.V.f >.>.B V V ",
"7 7 *.*.*.*.f f @.@.N m m l L / L N.R..X.X2X2X2X2X2X<X2X1X1Xy ~ f *.*.*.m m l *.*.N V.V.9 *.*.B V V ",
"7 7 *.*.*.*.f f @.@.@.m m l B L *.L ! i i u u u 9.!.y u u u *.f f *.*.*.m m l *.*.@.V.V.9 *.*.B V V ",
"0 0 n *.*.*.l l N *.*.m m l B.B.*.B.^ i i r i ! 9.Q.i Q ! ! *.l l @.:.:.m m l B.B.*.Z.Z.8 B.B.;.B B ",
"d d n m m *.l l N *.*.n n l *.*.*.*.; 8.8.W.n.; : e.: O @.@.*.l l @.:.:.m m l @.@.*.@.@.f B.B.B B B ",
"d d n m m *.l l N *.*.n n l *.*.*.*.; , , e.6.; > !.@X>X  O *.l l o.:.:.m m l @.@.*.@.@.f B.B.B B B ",
"0 0 n N N *.9 9 N *.*.m m l *.*.*.B.; , , e.6.; > !.@X>X  O @.9 9 *.*.*.:.:.f @.@.*.B.B.9 B.B.*.V V ",
"0 0 f l l n 8 8 N *.*.m m l *.B *.N : 4 4 t.7.; > Q.@X@X* ; m 8 8 @.@.@.@.@.l N N *.*.*.s *.*.-.B B ",
"0 0 f l l n 8 8 @.*.*.m m l B B ; ; t.t.t.w.6.< > w.w.q.: ; m 8 8 @.@.@.@.@.l N N *.*.*.s *.*.-.B B ",
"d d @.B.B.B.l l @.*.*.m m l *.*.e t ;X;X;X;X:X%X|.F. X{.[.[.= ; l @.@.@.:.:.l @.@.*.N N f -.>.*.V V ",
"h h C.*.*.B.l l @.*.*.m m l *.*.e i 2X2X2X2X2X2X,X!.OX}.}.}.= ; l @.*.*.B.B.l *.*.*.>.>.s Z.Z.B V V ",
"g g C.*.*.B.l l @.*.*.m m l *.*.e i R..X.X2X%X~ 8.q.w.w.w.w.: ; l @.*.*.B.B.l *.*.*.>.>.s Z.Z.B V V ",
"h h 1.*.*.<.8 8 *.n n v v 8 *.*.e ~ R..X.X2X%X~ 8.t.t.t.r.r.: - f *.N N *.*.l N @.@.n n f -.-.B V V ",
"h h 1.*.*.<.8 8 *.n n n v 8 *.*.- < i i i i 8.q.q.w.4.4.A A o f f *.N N *.*.l @.@.@.n n f -.-.B V V ",
"h h %.@.@.<.8 8 8 8 8 9 9 8 @.@.*.v A G G 5.5.5.) Z ] ` ].`.# % l *.*.*.B.B.l @.@.@.X.X.f m m B V V ",
"h h %.*.*.@.9 9 n m m n n f >.>.*.*.C H H  . .5. .A ] ` '._.. $ f *.@.@.Z.Z.9 @.@.@.X.X.f >.>.B V V ",
"h h %.*.*.@.9 9 n m m v v f >.>.*.*.$ S S [ | `.`.`.@ $ @ @ @ $ f *.@.@.Z.Z.9 @.@.@.X.X.f >.>.B V V ",
"h h @.@.@.1.f f *.*.*.n n f *.*.*.n $ D D [ p ).)._.@ o $ $ $ $ f *.*.*.B.B.l @.@.@.X.X.f Z.Z.-.M M ",
"g g @.*.*.1.f f @.*.*.m m f *.*.@.n $ D D [ ' ` ` ` $ % *.*.B.f f *.o.o.Z.Z.l *.*.*.%.%.f Z.Z.*.B B ",
"g g @.*.*.1.f f @.*.*.m m f *.*.@.n & _ _ { { { { { & D *.*.B.f f *.o.o.Z.Z.l *.*.*.%.%.f Z.Z.*.B B ",
"h h @.*.*.Z.9 9 @.@.@.n n f *.*.n v v f B.B.@.@.@.f f @.*.*.Z.9 9 @.*.*.*.*.9 B.B.@.@.@.f *.*.*.V V ",
"h h #.*.*.B.f f *.*.*.n n f n n o.n n 9 *.*.*.@.@.f f *.:.:.Z.l l >.@.@.*.*.9 8 8 Z.@.@.q m m B =.=.",
"h h #.*.*.B.f f *.*.*.n n f n n m n n 9 *.*.*.@.@.f f *.:.:.Z.l l >.@.@.*.*.9 8 8 Z.@.@.q m m B =.=.",
"j j +.+.@.#.h h %.#.#.v v 9 f f f f f 8 Z.Z.@.>.>.h h @.@.@.@.f f @.:.:.n n f 9 9 9 d d 0 >.>.*.B B ",
"g g j +.+.1.g g +.%.%.+.+.h 1.1.2.,.,.g &.&.%.%.%.g g h %.%.2.0 0 +.X.X.$.$.h 2.2.1.2.2.d %.%.@.N N ",
"g g j +.+.1.d d +.%.%.+.+.h 1.1.2.,.,.g &.&.%.%.%.g g h %.%.2.0 0 +.X.X.$.$.h 2.2.1.2.2.d %.%.@.N N "
};
