/* XPM */
static char *fd7f38b1a34e4298c764e34074b3c577WlvkKV9nvbnFiaTG[] = {
/* columns rows colors chars-per-pixel */
"50 50 211 2 ",
"   c #2D1414",
".  c #032E1D",
"X  c #131D21",
"o  c #0B1D39",
"O  c #261727",
"+  c #251C39",
"@  c #022627",
"#  c #043223",
"$  c #042333",
"%  c #022C39",
"&  c #003339",
"*  c #530308",
"=  c #5A1108",
"-  c #47051C",
";  c #4D021C",
":  c #560218",
">  c #640C1B",
",  c #78111E",
"<  c #4E0120",
"1  c #4F1E36",
"2  c #581937",
"3  c #521A3F",
"4  c #7D1022",
"5  c #651B3A",
"6  c #4D3924",
"7  c #4D382C",
"8  c #553B2B",
"9  c #593D2D",
"0  c #523C32",
"q  c #5B3D31",
"w  c #60202F",
"e  c #6B293E",
"r  c #792A37",
"t  c #73253C",
"y  c #7C3737",
"u  c #74333A",
"i  c #79313D",
"p  c #19683E",
"a  c #584126",
"s  c #5C432E",
"d  c #564136",
"f  c #5D4233",
"g  c #56433A",
"h  c #5A443A",
"j  c #5B493E",
"k  c #69482F",
"l  c #614333",
"z  c #6D4734",
"x  c #614B33",
"c  c #6D4C34",
"v  c #60463A",
"b  c #694639",
"n  c #654A3B",
"m  c #6B4D3D",
"M  c #734D3B",
"N  c #6E513E",
"B  c #73523D",
"V  c #79533E",
"C  c #1C164D",
"Z  c #281146",
"A  c #22134A",
"S  c #073843",
"D  c #083940",
"F  c #3B234B",
"G  c #33285A",
"H  c #2D2B60",
"J  c #471F46",
"K  c #4B1D45",
"L  c #441B4A",
"P  c #4A1D49",
"I  c #511B42",
"U  c #591E40",
"Y  c #441E50",
"T  c #422441",
"R  c #472149",
"E  c #5D2542",
"W  c #662843",
"Q  c #6D3A48",
"!  c #753143",
"~  c #793142",
"^  c #713349",
"/  c #7C314C",
"(  c #7E3A54",
")  c #4A3D6E",
"_  c #014647",
"`  c #0C5844",
"'  c #0C564D",
"]  c #184D59",
"[  c #0C5555",
"{  c #025F5B",
"}  c #254A43",
"|  c #1D6446",
" . c #3C4878",
".. c #5D4057",
"X. c #654C42",
"o. c #6B4F42",
"O. c #704D40",
"+. c #665147",
"@. c #6D5242",
"#. c #6F5943",
"$. c #665148",
"%. c #6B544A",
"&. c #6E594D",
"*. c #715444",
"=. c #7B5640",
"-. c #755945",
";. c #795A44",
":. c #735649",
">. c #73594A",
",. c #7E5B50",
"<. c #766156",
"1. c #7E6353",
"2. c #7B655B",
"3. c #7D685C",
"4. c #6C705A",
"5. c #50456B",
"6. c #464775",
"7. c #871C29",
"8. c #891A31",
"9. c #882E38",
"0. c #853A38",
"q. c #9A393F",
"w. c #A4262C",
"e. c #A9232E",
"r. c #A22828",
"t. c #A62132",
"y. c #A82332",
"u. c #A5383F",
"i. c #842E42",
"p. c #80304A",
"a. c #9D3646",
"s. c #953B46",
"d. c #9A3947",
"f. c #98374D",
"g. c #96394D",
"h. c #98384D",
"j. c #8E3B56",
"k. c #893C57",
"l. c #943951",
"z. c #993951",
"x. c #A53B45",
"c. c #805E4E",
"v. c #884057",
"b. c #9A4A57",
"n. c #9C535E",
"m. c #AB424B",
"M. c #A14A49",
"N. c #B7484B",
"B. c #AE5246",
"V. c #A65453",
"C. c #836654",
"Z. c #846854",
"A. c #856959",
"S. c #B8655D",
"D. c #985461",
"F. c #C34B4C",
"G. c #CB574E",
"H. c #DF5B4F",
"J. c #CB4F51",
"K. c #C75556",
"L. c #D55A57",
"P. c #DC5B54",
"I. c #E25B47",
"U. c #E4594C",
"Y. c #E45755",
"T. c #E25950",
"R. c #D46C4C",
"E. c #D86B4C",
"W. c #C96257",
"Q. c #CB6D5B",
"!. c #DB6557",
"~. c #D56B52",
"^. c #C45460",
"/. c #D25E60",
"(. c #C76362",
"). c #DD7A74",
"_. c #368F27",
"`. c #369128",
"'. c #3D8935",
"]. c #368C3C",
"[. c #3C8844",
"{. c #DD935D",
"}. c #EC985E",
"|. c #FFB45F",
" X c #DC957A",
".X c #EE9562",
"XX c #E5936A",
"oX c #F68677",
"OX c #F0887C",
"+X c #FFB167",
"@X c #ECA378",
"#X c #FEB07A",
"$X c #B2A1B8",
"%X c #D98B80",
"&X c #D89982",
"*X c #E39F89",
"=X c #FE9583",
"-X c #FB9A82",
";X c #DEA591",
":X c #ECA386",
">X c #E5A289",
",X c #F3B686",
"<X c #F9B88B",
"1X c #FFC78E",
"2X c #FCC98E",
"3X c #FEC693",
"4X c #F8C899",
"5X c #EBCDA4",
"6X c #F4CCA8",
"7X c #F8E4CF",
"8X c #EDF3FA",
/* pixels */
"g g %.&.&.%.g g %.%.%.X.X.j &.&.%.2.2.g %.%.%.+.+.0 0 +.%.%.%.j j %.@.@.o.X.j +.+.%.3.3.8 +.+.&.#.#.",
"g g %.&.&.%.g g %.%.%.X.X.j &.&.%.2.2.g %.%.%.+.+.0 0 +.%.%.%.j j %.@.@.o.o.j +.+.%.3.3.8 +.+.&.#.#.",
"0 0 X.%.%.%.g g %.%.%.X.X.d 2.2.+.2.2.0 1.1.@.n n 8 8 n X.X.%.v v :.@.@.n n f 1.1.n 1.1.a 6 6 8 9 9 ",
"h h X.%.%.+.d d %.%.%.X.X.h #.#.N >.>.f T T T T @.f f h @.@.o.f f @.m m X.X.l m m *.#.#.s x x x m m ",
"h h X.%.%.+.d d %.%.%.X.X.h *.#.m >.>.f K K K T @.f d h @.@.o.q q @.m m X.X.l m m *.#.#.s x x x m m ",
"0 0 X.@.@.@.q q %.@.@.@.@.f >.>.N 2.2.f P ^.Y.i.K T T n *.*.:.q q *.@.@.m m l B B B Z.Z.a N N N c c ",
"g g v v v n 9 9 :.*.*.o.o.v N N N *.*.q K ^.Y.i.I T T l l l m q q B B B m m l m m -.-.-.s -.-.B k k ",
"g g v v v n 9 9 :.*.*.o.o.v Y L P P P I f.g.g.).-XD.D.R l l m q q B B B m m l m m -.-.-.s -.-.B k k ",
"g g o.A.C.1.f f *.@.@.@.@.l J J I I I 3 z.g.g.).-Xn.n.R c.c.,.b b B B B m m l m m *.B B s >.>.B m m ",
"g g A.*.*.1.l l *.*.*.1.F W T.!.=X=XP.L.l.g.g.J.U.N.N.l.L L L L l B B B m m l O.O.m *.*.s C.C.:.m m ",
"g g A.*.*.1.l l *.*.*.1.F W J.K.).).K.K.g.p./ m.J.N.N.m.v.( W L l B B B m m l O.O.m *.*.s C.C.:.M M ",
"g g A.@.@.Z.l l *.N L F P E f.h.l.l.l.l.g.U J / g.F.F.U.=XOXf.k.P T n n m m 9 :.:.*.*.*.l C.C.>.M M ",
"g g A.@.@.Z.l l *.N N *.*.l I 5 P.P.P.L.l.K.P.m.g.g.g.d.H.H.P.L.l.v.L L m m 9 :.:.*.*.*.l C.C.>.M M ",
"g g %.*.*.C.l l *.*.*.C.C.l P 5 U.U.U.P.l.L.U.m.l.l.l.g.U.U.U.L.l.j.I K q q 8 o.o.@.n n f C.1.B c c ",
"g g A.m m N l l *.N N A.J ! =XoXU.P.a.g.l.L.U.oX=X(.(.l.g.h.f.g.l.j.3 J o.o.f :.:.o.*.*.f C.C.B M M ",
"g g A.m m N l l *.N N A.J ! =XoXU.P.a.h.d.K.P.oX=X(.(.d.g.h.a.a.a.g.3 J X.X.f :.:.o.*.*.f C.C.B M M ",
"g g >.*.*.C.l l *.@.@.C.P t U.U.I.P.a.d.E.M.g.K.U.U.U.T.g.m.P.U.T./.2 J n n v *.*.@.o.o.f C.C.m V V ",
"g g :.*.*.C.l l *.@.@.C.P t U.P.x.u.Q.Q.<XM.g.a.x.F.F.T.g.m.P.P.x.z.3 K n n v *.*.*.@.@.f *.*.*.z z ",
"g g :.*.*.C.l l *.N @.C.L W P.L.d.q.(.Q.4XM.d.a.a.F.F.P.d.m.P.L.l.j.3 K n n v *.*.*.@.@.f *.*.:.z z ",
"h h :.*.*.A.s s N *.*.@.@.E t r W.W.t e Q S.W.W.W.N.N.x.>X%Xx.x.l.j.3 K n n f @.o.m n n l C.C.*.M M ",
"h h *.@.@.C.f f >.*.*.*.*.9 K w R.Q.1 J K S.~.R.R.B.B.s.3X>Xs.l.l.j.3 K n n 9 l l m n n 9 *.*.:.M M ",
"h h *.@.@.C.f f >.*.*.*.*.9 W u @X>XO + $X;X@X@X@X X X X3X>Xs.l.l.j.3 K n n 9 l l m n n 9 *.*.:.M M ",
"h h @.N N *.l l *.>.>.n n l ! y 3X6XX $ 8X6X3X1X1X3X3X3X3X*Xg.l.l.k.K L n n 8 f f f f f 9 C.C.B =.=.",
"g g v *.*.C.s s *.N N N N l ~ 0.3X5X} ] 8X6X3X3X3X3X3X3X~.K.d.k.P L @.@.m m f C.C.C.C.C.f >.>.B V V ",
"g g v *.*.C.f f *.N N N N l ~ y 3X4X4.4.7X6X3X3X3X,X,X@XV.b./ ..L L N N m m f C.C.C.Z.Z.f >.>.B V V ",
"7 7 *.*.*.*.f f @.@.N m m l ~ y 2X1X3X1X3X3X3X3X3XXXXXE.V.L / L f *.*.*.m m l *.*.N Z.Z.9 *.*.B V V ",
"7 7 *.*.*.*.f f @.@.@.m m l B *.u u u y ~.0.u u u i i ~ L *.L f f *.*.*.m m l *.*.@.Z.Z.9 *.*.B V V ",
"0 0 n *.*.*.l l N *.*.m m l C.C.~ ~ Q i !.0.~ i y i i ^ :.:.*.l l @.:.:.m m l C.C.*.Z.A.8 C.C.;.B B ",
"d d n m m *.l l N *.*.n n l *.*.*.*.O : r.: ; M.Q.9.9.< @.@.*.l l @.:.:.m m l @.@.*.@.@.f C.C.B B B ",
"d d n m m *.l l N *.*.n n l *.*.O   ,X#X~.> ; 7.r., , ; @.@.*.l l o.:.:.m m l @.@.*.@.@.f C.C.B B B ",
"0 0 n N N *.9 9 N *.*.m m l *.*.O   ,X#X~.> ; 7.r., , ; *.*.@.9 9 *.*.*.:.:.f @.@.*.C.C.9 C.C.*.V V ",
"0 0 f l l n 8 8 N *.*.m m l *.B ; * #X#X!.> ; 8.y.4 4 : f f m 8 8 @.@.@.@.@.l N N *.*.*.s *.*.-.B B ",
"0 0 f l l n 8 8 @.*.*.m m l B B ; : w.e.e.> < 7.e.y.y.y.; ; m 8 8 @.@.@.@.@.l N N *.*.*.s *.*.-.B B ",
"d d @.C.C.C.l l @.*.*.m m l ; = {.{.}..XG. X&X>X:X:X:X:Xt e C.l l @.@.@.:.:.l @.@.*.N N f -.>.*.V V ",
"h h C.*.*.C.l l @.*.*.m m l ; = |.|.|.+X~.<X3X3X3X3X3X3Xi e Z.l l @.*.*.C.C.l *.*.*.>.>.f Z.Z.B V V ",
"h h C.*.*.C.l l @.*.*.m m l ; : e.e.e.e.w.9.~ &X3XXXXXE.i e Z.l l @.*.*.C.C.l *.*.*.>.>.f Z.Z.B V V ",
"h h 2.*.*.1.8 8 *.n n v v 8 - : t.t.y.y.y.9.~ &X3XXXXXE.~ e A.f f *.N N *.*.l N @.@.n n f -.-.B V V ",
"h h 2.*.*.1.8 8 *.n n v v 8 *.o A A 5.5.e.w.w.9.i i i i < - A.f f *.N N *.*.l @.@.@.n n f -.-.B V V ",
"h h %.@.@.1.8 8 8 8 8 9 9 8 % # '.[.` ] Z ) 6.6.6.G G A *.*.C.l l *.*.*.C.C.l @.@.@.X.X.f m m B V V ",
"h h %.*.*.@.9 9 m m m v v f $ . `.].` ] A  .6. . .H H C o.o.@.f f *.@.@.A.A.9 @.@.@.X.X.f >.>.B V V ",
"h h %.*.*.@.9 9 n m m v v f $ $ @ @ $ @ '.'.'.| [ S S $ o.o.@.f f *.@.@.A.A.9 @.@.@.X.X.f >.>.B V V ",
"h h @.@.@.2.f f :.:.*.n n f $ $ $ $ o @ `._._.p [ D D $ *.*.C.f f *.*.*.C.C.l @.*.@.X.X.f A.A.*.M M ",
"g g @.*.*.2.f f @.*.*.m m f *.*.@.n & $ ` ` ` ' [ D D $ *.*.C.f f *.o.o.A.A.l *.*.:.%.%.f A.A.*.B B ",
"g g @.*.*.2.f f @.*.*.m m f *.*.@.n D & { { { { { _ _ & *.*.C.f f *.o.o.A.A.l *.*.:.%.%.f A.A.*.B B ",
"h h @.*.*.A.9 9 @.@.@.n n f *.*.n v v f C.C.@.@.@.f f @.*.*.A.9 9 @.*.*.*.*.9 C.C.@.@.@.f :.:.*.V V ",
"h h #.*.*.C.f f *.*.*.n n f n n o.n n 9 *.*.*.@.@.f f *.:.:.A.l l >.@.@.*.*.9 9 9 A.@.@.q m m B =.=.",
"h h #.*.*.C.f f *.*.*.n n f n n m n n 9 *.*.*.@.@.f f *.:.:.A.l l >.@.@.*.*.9 9 9 A.@.@.q m m B =.=.",
"j j +.+.@.#.h h %.#.#.v v 9 f f f f f 8 A.A.@.>.>.h h @.@.@.@.f f @.:.:.n n f 9 9 9 d d 0 >.>.*.B B ",
"g g j +.+.2.g g +.%.%.+.+.h 2.2.3.<.<.g &.&.%.%.%.g g h %.%.3.0 0 +.X.X.$.$.h 3.3.2.3.3.d %.%.@.N N ",
"g g j +.+.2.d d +.%.%.+.+.h 2.2.3.<.<.g &.&.%.%.%.g g h %.%.3.0 0 +.X.X.$.$.h 3.3.2.3.3.d %.%.@.N N "
};
