/* XPM */
static char *collectible_xpm[] = {
"16 16 2 1",
". c #000000",
"X c #FF00FF",
"................",
"................",
"................",
"................",
".....XXXXXX.....",
"....XXXXXXXX....",
"....XXXXXXXX....",
"...XXXXXXXXXX...",
"...XXXXXXXXXX...",
"...XXXXXXXXXX...",
"...XXXXXXXXXX...",
"...XXXXXXXXXX...",
"....XXXXXXXX....",
"....XXXXXXXX....",
".....XXXXXX.....",
"................"
};

