/* XPM */
static char *exit_xpm[] = {
"16 16 2 1",
". c #000000",
"X c #00FF00",
"................",
"................",
"................",
"................",
"................",
"................",
"....XXXXXXXX....",
"....XXXXXXXX....",
"....XXXXXXXX....",
"....XXXXXXXX....",
"....XXXXXXXX....",
"....XXXXXXXX....",
"....XXXXXXXX....",
"....XXXXXXXX....",
"....XXXXXXXX....",
"................"
};

